<svg xmlns="http://www.w3.org/2000/svg" width="192" height="33.656" viewBox="0 0 192 33.656">
  <defs>
    <style>
      .cls-1 {
        fill-rule: evenodd;
      }
    </style>
  </defs>
  <path class="cls-1" d="M248.082,59.628V51.394h3.478v8.234q1.655-.027,4.021-0.093a51.484,51.484,0,0,0,7.06-.692V61.8a46.506,46.506,0,0,1-6.823.69q-2.918.095-5.119,0.1h-8.712V59.628h6.095Zm10.626-16a64.948,64.948,0,0,1-.351,7.37,56.607,56.607,0,0,1-.927,5.612h-3.446c0.3-1.49.577-3.107,0.845-4.856a34.233,34.233,0,0,0,.4-5.169H244.158V43.631h14.55ZM270.7,54.351h-5.041V69.279h-3.477V41.19h3.477v10.2H270.7v2.957Zm14.444-1.825,5.614,4.464L288.5,59.284l-5.487-4.5a34.674,34.674,0,0,1-7.531,5.031L273.4,57.554q8.363-4.365,10.054-8.455h-8.362V46.116h12.86a10.083,10.083,0,0,1-.575,2.481A13.805,13.805,0,0,1,285.146,52.525Zm1.211-7.762h-4.53a10.75,10.75,0,0,1-5.489-1.351l0.956-2.484a17.118,17.118,0,0,0,5.107.912h3.956v2.923Zm11.359,24.776H280.753v-9.06h3.479v6.108h13.484v2.952Zm-0.19-6.736h-3.479V53.345h-5.521V50.358h5.521V41.19h3.479V62.8Zm37.735-7.265H321.945v7.1H317.7v-7.1H303.245V51.989h32.016v3.549Zm-6.568-6.8H309.778V36.034h18.915V48.743Zm1.135,20.8H309.854v-10.6h4.207v7.093h15.767v3.508Zm-5.266-24.3V39.581H313.95v5.653h10.612Zm36.892,0.772h-10.42a5.208,5.208,0,0,0-2.429,1.118A3.866,3.866,0,0,0,347.243,50a3.338,3.338,0,0,0,1.042,2.595,3.707,3.707,0,0,0,2.595.953,3.81,3.81,0,0,0,2.652-.953A3.306,3.306,0,0,0,354.6,50a3.006,3.006,0,0,0-.87-1.9l3.183-1.98a7.581,7.581,0,0,1,1.382,1.868A4.536,4.536,0,0,1,358.727,50a6.4,6.4,0,0,1-2.235,5.079,7.694,7.694,0,0,1-3.412,1.753V59c0.834-.024,1.756-0.047,2.767-0.075a52.826,52.826,0,0,0,7.717-.823v3.513a46.722,46.722,0,0,1-7.435.818q-3.429.112-6.042,0.116h-10.35V59.032h9.214V56.868a7.559,7.559,0,0,1-3.64-1.789A6.4,6.4,0,0,1,343.076,50a5.342,5.342,0,0,1,1.055-3.136,7.741,7.741,0,0,1,.683-0.858h-4.432v-3.4h21.072v3.4ZM357.1,40.965h-7.737a9.888,9.888,0,0,1-2.729-.393,12.277,12.277,0,0,1-2.73-1.176l1.213-2.912a21.486,21.486,0,0,0,2.634.82,9.747,9.747,0,0,0,1.993.188H357.1v3.473Zm16.117,10.791h-5.987V69.23H363.1V35.862h4.134V48.244h5.987v3.512Zm16.745-7.812a25.887,25.887,0,0,1-3.034,8.646l5.329,6.5-2.585,1.728-4.532-5.5a31.342,31.342,0,0,1-5.9,5.939l-2.425-2.137q7.207-5.534,8.963-12.257H378.25V43.945h11.714Zm9.38,25.334V53.345h-3.033V69.489h-3.32V41.3h3.32v9.062h3.033V41.19h3.381V69.279h-3.381ZM422.6,56.705H407.573V42.72h12.894v2.954h-9.416v8.077H422.6v2.954Zm6.83,12.834H412.466V59.628h3.478v6.959h13.488v2.952Zm4.561-18.458h-4.912V61.7H425.6V41.19h3.479v6.778h4.912v3.113Z" transform="translate(-242 -35.875)"/>
</svg>
