<svg xmlns="http://www.w3.org/2000/svg" width="192" height="33.656" viewBox="0 0 192 33.656">
  <defs>
    <style>
      .cls-1 {
        fill: #fff;
        fill-rule: evenodd;
      }
    </style>
  </defs>
  <path class="cls-1" d="M287.082,65.628V57.394h3.478v8.234q1.655-.028,4.021-0.093a51.47,51.47,0,0,0,7.06-.692V67.8a46.507,46.507,0,0,1-6.823.69q-2.918.095-5.119,0.1h-8.712V65.628h6.095Zm10.626-16a64.947,64.947,0,0,1-.351,7.37,56.612,56.612,0,0,1-.927,5.612h-3.446c0.3-1.49.577-3.106,0.845-4.856a34.231,34.231,0,0,0,.4-5.169H283.158V49.631h14.55ZM309.7,60.351h-5.041V75.279h-3.477V47.19h3.477v10.2H309.7v2.956Zm14.444-1.825,5.614,4.464L327.5,65.284l-5.487-4.5a34.671,34.671,0,0,1-7.531,5.031L312.4,63.554q8.363-4.365,10.054-8.455h-8.362V52.116h12.86a10.084,10.084,0,0,1-.575,2.481A13.809,13.809,0,0,1,324.146,58.525Zm1.211-7.762h-4.53a10.749,10.749,0,0,1-5.489-1.351l0.956-2.484a17.116,17.116,0,0,0,5.107.912h3.956v2.923Zm11.359,24.776H319.753v-9.06h3.479v6.108h13.484v2.952Zm-0.19-6.736h-3.479V59.345h-5.521V56.358h5.521V47.19h3.479V68.8Zm37.735-7.265H360.945v7.1H356.7v-7.1H342.245V57.989h32.016v3.549Zm-6.568-6.8H348.778V42.034h18.915V54.743Zm1.135,20.8H348.854v-10.6h4.207v7.093h15.767v3.508Zm-5.266-24.305V45.581H352.95v5.653h10.612Zm36.892,0.773h-10.42a5.206,5.206,0,0,0-2.429,1.118A3.866,3.866,0,0,0,386.243,56a3.337,3.337,0,0,0,1.042,2.594,3.706,3.706,0,0,0,2.595.953,3.809,3.809,0,0,0,2.652-.953A3.306,3.306,0,0,0,393.6,56a3.006,3.006,0,0,0-.87-1.9l3.183-1.98a7.581,7.581,0,0,1,1.382,1.868A4.535,4.535,0,0,1,397.727,56a6.4,6.4,0,0,1-2.235,5.078,7.693,7.693,0,0,1-3.412,1.753V65c0.834-.024,1.756-0.047,2.767-0.075a52.813,52.813,0,0,0,7.717-.823v3.513a46.721,46.721,0,0,1-7.435.817q-3.429.113-6.042,0.116h-10.35V65.031h9.214V62.868a7.559,7.559,0,0,1-3.64-1.789A6.4,6.4,0,0,1,382.076,56a5.342,5.342,0,0,1,1.055-3.136,7.722,7.722,0,0,1,.683-0.858h-4.432v-3.4h21.072v3.4ZM396.1,46.965h-7.737a9.884,9.884,0,0,1-2.729-.393,12.273,12.273,0,0,1-2.73-1.176l1.213-2.912a21.5,21.5,0,0,0,2.634.82,9.755,9.755,0,0,0,1.993.188H396.1v3.473Zm16.117,10.791h-5.987V75.23H402.1V41.862h4.134V54.244h5.987v3.512Zm16.745-7.812a25.887,25.887,0,0,1-3.034,8.646l5.329,6.5-2.585,1.728-4.532-5.5a31.339,31.339,0,0,1-5.9,5.939l-2.425-2.136q7.207-5.534,8.963-12.257H417.25V49.945h11.714Zm9.38,25.334V59.345h-3.033V75.489h-3.32V47.3h3.32v9.062h3.033V47.19h3.381V75.279h-3.381ZM461.6,62.705H446.573V48.72h12.894v2.954h-9.416v8.077H461.6v2.954Zm6.83,12.834H451.466V65.628h3.478v6.959h13.488v2.952Zm4.561-18.458h-4.912V67.7H464.6V47.19h3.479v6.777h4.912v3.113Z" transform="translate(-281 -41.875)"/>
</svg>
